# Blender v2.91.0 OBJ File: ''
# www.blender.org
mtllib paddle.mtl
o Cube_Cube.001
v -0.415000 -0.500000 4.150000
v -0.415000 -0.415000 5.000000
v -0.500000 -0.415000 4.150000
v -0.415000 -0.475104 4.751040
v -0.464075 -0.464075 4.640747
v -0.475104 -0.415000 4.751040
v -0.475104 -0.475104 4.150000
v -0.415000 0.419144 5.000000
v -0.415106 0.504245 4.150000
v -0.500000 0.415000 4.150000
v -0.415053 0.479298 4.751040
v -0.464097 0.465847 4.640747
v -0.475157 0.476368 4.150000
v -0.475082 0.416193 4.751040
v -0.415000 -0.500000 -4.150000
v -0.500000 -0.415000 -4.150000
v -0.415000 -0.415000 -5.000000
v -0.475104 -0.475104 -4.150000
v -0.464075 -0.464075 -4.640747
v -0.475104 -0.415000 -4.751040
v -0.415000 -0.475104 -4.751040
v -0.415106 0.504245 -4.150000
v -0.415000 0.419144 -5.000000
v -0.500000 0.415000 -4.150000
v -0.415053 0.479298 -4.751040
v -0.464097 0.465847 -4.640747
v -0.475082 0.416193 -4.751040
v -0.475157 0.476368 -4.150000
v 0.415000 -0.500000 4.150000
v 0.500000 -0.415000 4.150000
v 0.415000 -0.415000 5.000000
v 0.475104 -0.475104 4.150000
v 0.464075 -0.464075 4.640747
v 0.475104 -0.415000 4.751040
v 0.415000 -0.475104 4.751040
v 0.415106 0.545755 4.150000
v 0.415000 0.460644 5.000000
v 0.500000 0.465000 4.150000
v 0.415053 0.520804 4.751040
v 0.464097 0.512257 4.640747
v 0.475082 0.463701 4.751040
v 0.475157 0.523884 4.150000
v 0.415000 -0.500000 -4.150000
v 0.415000 -0.415000 -5.000000
v 0.500000 -0.415000 -4.150000
v 0.415000 -0.475104 -4.751040
v 0.464075 -0.464075 -4.640747
v 0.475104 -0.415000 -4.751040
v 0.475104 -0.475104 -4.150000
v 0.415106 0.545755 -4.150000
v 0.500000 0.465000 -4.150000
v 0.415000 0.460644 -5.000000
v 0.475157 0.523884 -4.150000
v 0.464097 0.512257 -4.640747
v 0.475082 0.463701 -4.751040
v 0.415053 0.520804 -4.751040
vt 0.395444 0.771250
vt 0.604544 0.771250
vt 0.603949 0.978750
vt 0.396039 0.978750
vt 0.395238 0.521250
vt 0.604762 0.521250
vt 0.604762 0.728750
vt 0.395238 0.728750
vt 0.646223 0.521250
vt 0.853777 0.521250
vt 0.853777 0.728750
vt 0.646224 0.728750
vt 0.396250 0.021250
vt 0.603750 0.021250
vt 0.603750 0.228750
vt 0.396250 0.228750
vt 0.396039 0.271250
vt 0.603949 0.271250
vt 0.604543 0.478750
vt 0.395444 0.478750
vt 0.146250 0.728750
vt 0.146250 0.750000
vt 0.133981 0.750000
vt 0.125000 0.728750
vt 0.396250 1.000000
vt 0.383981 1.000000
vt 0.375000 0.978750
vt 0.375000 0.021250
vt 0.375000 0.008981
vt 0.396250 0.000000
vt 0.625000 0.979074
vt 0.625000 0.991472
vt 0.604048 1.000000
vt 0.875000 0.728750
vt 0.875000 0.741019
vt 0.854074 0.750000
vt 0.604048 0.000000
vt 0.616462 0.000000
vt 0.625000 0.021250
vt 0.146250 0.521250
vt 0.125000 0.521250
vt 0.125000 0.508981
vt 0.146250 0.500000
vt 0.396250 0.250000
vt 0.383981 0.250000
vt 0.375000 0.228750
vt 0.375000 0.271250
vt 0.375000 0.258981
vt 0.854074 0.500000
vt 0.866472 0.500000
vt 0.875000 0.521250
vt 0.604048 0.250000
vt 0.616462 0.250000
vt 0.625000 0.270926
vt 0.625000 0.228750
vt 0.625000 0.241019
vt 0.353750 0.728750
vt 0.375000 0.728750
vt 0.377851 0.750000
vt 0.353750 0.750000
vt 0.395238 0.750000
vt 0.375000 0.771250
vt 0.646548 0.750000
vt 0.625146 0.747006
vt 0.625000 0.728750
vt 0.604453 0.750000
vt 0.625000 0.771548
vt 0.353750 0.521250
vt 0.353750 0.500000
vt 0.374857 0.502994
vt 0.375000 0.521250
vt 0.395238 0.500000
vt 0.375000 0.478750
vt 0.625000 0.521250
vt 0.622005 0.499852
vt 0.646548 0.500000
vt 0.604453 0.500000
vt 0.625000 0.478452
vn 0.0000 0.0000 1.0000
vn 1.0000 0.0000 0.0000
vn -0.0499 0.9988 0.0000
vn -1.0000 0.0000 0.0000
vn 0.0000 0.0000 -1.0000
vn -0.3435 -0.9385 0.0344
vn -0.6943 -0.6943 0.1897
vn -0.9385 -0.3435 0.0344
vn -0.7120 0.6773 0.1854
vn -0.3838 0.9228 0.0339
vn -0.9408 0.3373 0.0339
vn -0.3435 -0.9385 -0.0344
vn -0.9385 -0.3435 -0.0344
vn -0.6943 -0.6943 -0.1897
vn -0.3838 0.9228 -0.0339
vn -0.7120 0.6773 -0.1854
vn -0.9408 0.3373 -0.0339
vn 0.3435 -0.9385 0.0344
vn 0.9385 -0.3435 0.0344
vn 0.6943 -0.6943 0.1897
vn 0.3011 0.9530 0.0350
vn 0.6761 0.7107 0.1945
vn 0.9367 0.3483 0.0350
vn 0.3435 -0.9385 -0.0344
vn 0.6943 -0.6943 -0.1897
vn 0.9385 -0.3435 -0.0344
vn 0.3011 0.9530 -0.0350
vn 0.9367 0.3483 -0.0350
vn 0.6761 0.7107 -0.1945
vn -0.3827 -0.9239 0.0000
vn -0.9239 -0.3827 0.0000
vn -0.9721 0.0000 0.2346
vn -0.9991 0.0000 0.0414
vn -0.4211 0.9070 0.0000
vn -0.9269 0.3752 0.0000
vn -0.9721 0.0000 -0.2346
vn -0.9991 0.0000 -0.0414
vn 0.0000 -0.9991 -0.0414
vn 0.0000 -0.9721 -0.2347
vn -0.0499 0.9979 -0.0414
vn -0.0485 0.9709 -0.2346
vn 0.9991 0.0000 -0.0414
vn 0.9721 0.0000 -0.2346
vn 0.3827 -0.9239 0.0000
vn 0.9239 -0.3827 0.0000
vn 0.3422 0.9396 0.0000
vn 0.9214 0.3887 0.0000
vn 0.9721 0.0000 0.2346
vn 0.9991 0.0000 0.0414
vn 0.0000 -0.9991 0.0414
vn 0.0000 -0.9721 0.2347
vn -0.0499 0.9979 0.0414
vn -0.0485 0.9709 0.2346
vn 0.0000 -1.0000 0.0000
usemtl None
s off
f 31/1/1 37/2/1 8/3/1 2/4/1
f 45/5/2 51/6/2 38/7/2 30/8/2
f 50/9/3 22/10/3 9/11/3 36/12/3
f 3/13/4 10/14/4 24/15/4 16/16/4
f 17/17/5 23/18/5 52/19/5 44/20/5
f 1/21/6 4/22/6 5/23/6 7/24/6
f 2/4/7 6/25/7 5/26/7 4/27/7
f 3/13/8 7/28/8 5/29/8 6/30/8
f 8/3/9 11/31/9 12/32/9 14/33/9
f 9/11/10 13/34/10 12/35/10 11/36/10
f 10/14/11 14/37/11 12/38/11 13/39/11
f 15/40/12 18/41/12 19/42/12 21/43/12
f 16/16/13 20/44/13 19/45/13 18/46/13
f 17/17/14 21/47/14 19/48/14 20/44/14
f 22/10/15 25/49/15 26/50/15 28/51/15
f 23/18/16 27/52/16 26/53/16 25/54/16
f 24/15/17 28/55/17 26/56/17 27/52/17
f 29/57/18 32/58/18 33/59/18 35/60/18
f 30/8/19 34/61/19 33/59/19 32/58/19
f 31/1/20 35/62/20 33/59/20 34/61/20
f 36/12/21 39/63/21 40/64/21 42/65/21
f 37/2/22 41/66/22 40/64/22 39/67/22
f 38/7/23 42/65/23 40/64/23 41/66/23
f 43/68/24 46/69/24 47/70/24 49/71/24
f 44/20/25 48/72/25 47/70/25 46/73/25
f 45/5/26 49/71/26 47/70/26 48/72/26
f 50/9/27 53/74/27 54/75/27 56/76/27
f 51/6/28 55/77/28 54/75/28 53/74/28
f 52/19/29 56/78/29 54/75/29 55/77/29
f 15/40/30 1/21/30 7/24/30 18/41/30
f 18/46/31 7/28/31 3/13/31 16/16/31
f 2/4/32 8/3/32 14/33/32 6/25/32
f 6/30/33 14/37/33 10/14/33 3/13/33
f 9/11/34 22/10/34 28/51/34 13/34/34
f 13/39/35 28/55/35 24/15/35 10/14/35
f 23/18/36 17/17/36 20/44/36 27/52/36
f 27/52/37 20/44/37 16/16/37 24/15/37
f 43/68/38 15/40/38 21/43/38 46/69/38
f 46/73/39 21/47/39 17/17/39 44/20/39
f 22/10/40 50/9/40 56/76/40 25/49/40
f 25/54/41 56/78/41 52/19/41 23/18/41
f 51/6/42 45/5/42 48/72/42 55/77/42
f 55/77/43 48/72/43 44/20/43 52/19/43
f 29/57/44 43/68/44 49/71/44 32/58/44
f 32/58/45 49/71/45 45/5/45 30/8/45
f 50/9/46 36/12/46 42/65/46 53/74/46
f 53/74/47 42/65/47 38/7/47 51/6/47
f 37/2/48 31/1/48 34/61/48 41/66/48
f 41/66/49 34/61/49 30/8/49 38/7/49
f 1/21/50 29/57/50 35/60/50 4/22/50
f 4/27/51 35/62/51 31/1/51 2/4/51
f 36/12/52 9/11/52 11/36/52 39/63/52
f 39/67/53 11/31/53 8/3/53 37/2/53
f 15/40/54 43/68/54 29/57/54 1/21/54
